<mxfile host="app.diagrams.net" modified="2024-01-07T03:52:46.103Z" agent="Mozilla/5.0 (Windows NT 10.0; Win64; x64) AppleWebKit/537.36 (KHTML, like Gecko) Chrome/118.0.0.0 Safari/537.36" version="22.1.17" etag="xjoS_nOGMl_64RmgmPYg" type="github">
  <diagram name="Page-1" id="cQ3zdosAbcx39ae-mgn1">
    <mxGraphModel>
      <root>
        <mxCell id="0" />
        <mxCell id="1" parent="0" />
      </root>
    </mxGraphModel>
  </diagram>
</mxfile>
